# xmcd
#
# Track frame offsets:
# 150
# 16365
# 32450
# 47050
# 61345
# 72645
# 84890
# 99850
# 113735
# 127530
# 139830
# 153830
# 164785
# 177795
# 191580
# 204995
# 217425
# 229920
# 242600
# 255985
# 267195
# 281290
# 295105
# 306865
#
# Disc length: 4246 seconds
#
#
# Revision: 2
# Processed by: cddbd v1.5.2PL0 Copyright (c) Steve Scherf et al.
# Submitted via: FreeRIP 2.941 
#
DISCID=4a109418
DTITLE=Belmonte e Amaraí - Dose Dupla
DYEAR=0
DGENRE=Sertanejo
TTITLE0=Ave Mensageira
TTITLE1=Ao te Perder
TTITLE2=O Tropeiro
TTITLE3=A Hora do Amor
TTITLE4=Amor Distante
TTITLE5=Ainda Ontem
TTITLE6=Uma Noite não
TTITLE7=Velha Canoa
TTITLE8=Amor de Artista
TTITLE9=A Voz do Amor
TTITLE10=Não Vá Embora
TTITLE11=Eterna Saudade
TTITLE12=Boa Noite Amor
TTITLE13=Minha Linda Cidade
TTITLE14=Ave sem ninho
TTITLE15=Saudosa Noiva
TTITLE16=Meu Dilema
TTITLE17=Mercedita
TTITLE18=Os Verde Campos De Minha Terra
TTITLE19=Meu Conselho
TTITLE20=Grito Aberto
TTITLE21=Quero lhe Dizer
TTITLE22=Escadas da Prisão
TTITLE23=Três Lagoas,Minha Terra Natal
EXTD=
EXTT0=
EXTT1=
EXTT2=
EXTT3=
EXTT4=
EXTT5=
EXTT6=
EXTT7=
EXTT8=
EXTT9=
EXTT10=
EXTT11=
EXTT12=
EXTT13=
EXTT14=
EXTT15=
EXTT16=
EXTT17=
EXTT18=
EXTT19=
EXTT20=
EXTT21=
EXTT22=
EXTT23=
PLAYORDER=
